<svg width="24" height="24" viewBox="0 0 24 24" fill="none" xmlns="http://www.w3.org/2000/svg">
<path d="M15.6001 20.4C15.6001 22.05 14.2501 23.4 12.6001 23.4C11.7801 23.4 11.0201 23.06 10.4801 22.52C9.9401 21.98 9.6001 21.22 9.6001 20.4" fill="#FBFBFB"/>
<path d="M12.6278 2.91003C8.91395 2.91003 5.89571 5.60003 5.89571 8.91003V11.8C5.89571 12.41 5.60399 13.34 5.25616 13.86L3.96584 15.77C3.1692 16.95 3.71899 18.26 5.17762 18.7C10.0135 20.14 15.2309 20.14 20.0668 18.7C21.4245 18.3 22.0191 16.87 21.2786 15.77L19.9883 13.86C19.6517 13.34 19.36 12.41 19.36 11.8V8.91003C19.36 5.61003 16.3305 2.91003 12.6278 2.91003Z" fill="#FBFBFB"/>
<path d="M14.3998 3C14.0982 2.92857 13.7868 2.87302 13.4658 2.84127C12.5317 2.74603 11.6366 2.80159 10.7998 3C11.082 2.4127 11.7825 2 12.5998 2C13.4171 2 14.1176 2.4127 14.3998 3Z" stroke="#FBFBFB" stroke-width="1.5" stroke-miterlimit="10" stroke-linecap="round" stroke-linejoin="round"/>
</svg>
