<svg width="24" height="24" viewBox="0 0 24 24" fill="none" xmlns="http://www.w3.org/2000/svg">
<path fill-rule="evenodd" clip-rule="evenodd" d="M17.6529 16.2387C20.2892 12.9025 20.0672 8.04639 16.987 4.96615C13.6675 1.6467 8.28561 1.6467 4.96615 4.96615C1.6467 8.28561 1.6467 13.6675 4.96615 16.987C8.04639 20.0672 12.9025 20.2892 16.2387 17.6529L19.8154 21.2296C20.2059 21.6201 20.8391 21.6201 21.2296 21.2296C21.6201 20.8391 21.6201 20.2059 21.2296 19.8154L17.6529 16.2387ZM15.5728 6.38037C18.1112 8.91878 18.1112 13.0343 15.5728 15.5728C13.0343 18.1112 8.91878 18.1112 6.38037 15.5728C3.84196 13.0343 3.84196 8.91878 6.38037 6.38037C8.91878 3.84196 13.0343 3.84196 15.5728 6.38037Z" fill="#282828"/>
</svg>
